# xmcd
#
# Track frame offsets:
#	150
#	16875
#	31635
#	49310
#	65642
#	81135
#	96820
#	111157
#	125232
#	141147
#	151915
#	168245
#	189410
#	203602
#	216970
#
# Disc length: 3010 seconds
#
# Revision: 1
# Processed by: cddbd v1.5.1PL0 Copyright (c) Steve Scherf et al.
# Submitted via: audiograbber 1.82.02
#
DISCID=ca0bc00f
DTITLE=Clive Bruce - Just One More Dance
DYEAR=2004
DGENRE=Country
TTITLE0=Just One More Dance
TTITLE1=Kom Dans Kleine Madelein
TTITLE2=Here Is My Love
TTITLE3=Hush Hush Maria
TTITLE4=Living Next Door To Alice
TTITLE5=Sayonara
TTITLE6=The Spanish Night Is Over
TTITLE7=God Must Be A Cowboy At Heart
TTITLE8=Is THis The Way To Amarillo
TTITLE9=Do Wah Diddy
TTITLE10=Going Back West
TTITLE11=Have You Ever Really Loved A Woman
TTITLE12=Sewe Dae Sonneskyn
TTITLE13=It's Now Or Never
TTITLE14=It's Another World
EXTD=
EXTT0=
EXTT1=
EXTT2=
EXTT3=
EXTT4=
EXTT5=
EXTT6=
EXTT7=
EXTT8=
EXTT9=
EXTT10=
EXTT11=
EXTT12=
EXTT13=
EXTT14=
PLAYORDER=
